<?xml version="1.0" encoding="UTF-8" standalone="no"?>
<!-- Created with Inkscape (http://www.inkscape.org/) -->

<svg
   width="120"
   height="120"
   viewBox="0 0 120 120"
   version="1.1"
   id="svg1"
   inkscape:version="1.4 (e7c3feb100, 2024-10-09)"
   sodipodi:docname="ipcamlogo.svg"
   xml:space="preserve"
   inkscape:export-filename="ipcamlogo.png"
   inkscape:export-xdpi="204.8"
   inkscape:export-ydpi="204.8"
   xmlns:inkscape="http://www.inkscape.org/namespaces/inkscape"
   xmlns:sodipodi="http://sodipodi.sourceforge.net/DTD/sodipodi-0.dtd"
   xmlns="http://www.w3.org/2000/svg"
   xmlns:svg="http://www.w3.org/2000/svg"><sodipodi:namedview
     id="namedview1"
     pagecolor="#ffffff"
     bordercolor="#000000"
     borderopacity="0.25"
     inkscape:showpageshadow="2"
     inkscape:pageopacity="0.0"
     inkscape:pagecheckerboard="0"
     inkscape:deskcolor="#d1d1d1"
     inkscape:document-units="px"
     showgrid="true"
     inkscape:zoom="2.8284271"
     inkscape:cx="55.507882"
     inkscape:cy="33.234019"
     inkscape:window-width="1210"
     inkscape:window-height="1051"
     inkscape:window-x="0"
     inkscape:window-y="0"
     inkscape:window-maximized="0"
     inkscape:current-layer="layer1"><inkscape:grid
       id="grid6"
       units="px"
       originx="60"
       originy="60"
       spacingx="1"
       spacingy="1"
       empcolor="#0099e5"
       empopacity="0.30196078"
       color="#0099e5"
       opacity="0.14901961"
       empspacing="5"
       enabled="true"
       visible="true" /></sodipodi:namedview><defs
     id="defs1" /><g
     inkscape:label="Layer 1"
     inkscape:groupmode="layer"
     id="layer1"><path
       d="M 59.999997,23.333332 A 36.666664,36.666664 0 0 0 23.333332,59.999997 36.666664,36.666664 0 0 0 59.999997,96.666656 36.666664,36.666664 0 0 0 96.666656,59.999997 36.666664,36.666664 0 0 0 59.999997,23.333332 Z"
       id="path5"
       style="fill:#613583;fill-opacity:1;stroke-width:0.244445"
       inkscape:label="path5"
       sodipodi:insensitive="true" /><path
       d="m 115,59.999998 c 0,-6.000002 -9.00002,-36.666666 -11.00001,-36.666666 -1.99999,0 -1.99999,73.333324 0,73.333324 C 105.99998,96.666656 115,66 115,59.999998 Z"
       id="path6"
       style="fill:#613583;fill-opacity:1;stroke-width:0.208204"
       sodipodi:nodetypes="zzzz"
       sodipodi:insensitive="true" /><path
       d="M 59.999997,115 C 66,115 96.666656,106 96.666656,103.99999 c 0,-2.00001 -73.333324,-1.99999 -73.333324,0 0,1.99999 30.666662,11.00001 36.666665,11.00001 z"
       id="path6-5"
       style="fill:#613583;fill-opacity:1;stroke-width:0.208204"
       sodipodi:nodetypes="zzzz"
       sodipodi:insensitive="true" /><path
       d="m 5,59.999997 c 0,5.999997 8.999998,36.666659 10.999999,36.666659 2.000001,0 2.000001,-73.333324 0,-73.333324 C 13.999998,23.333332 5,54 5,59.999997 Z"
       id="path6-5-2"
       style="fill:#613583;fill-opacity:1;stroke-width:0.208204"
       sodipodi:nodetypes="zzzz"
       sodipodi:insensitive="true" /><path
       d="m 59.999997,5 c -6.000003,-2e-7 -36.666665,8.999998 -36.666665,10.999999 0,2.000001 73.333324,2.000001 73.333324,0 C 96.666656,13.999998 66,5.0000002 59.999997,5 Z"
       id="path6-5-2-7"
       style="fill:#613583;fill-opacity:1;stroke-width:0.208204"
       sodipodi:nodetypes="zzzz"
       sodipodi:insensitive="true" /><path
       style="fill:#deddda;fill-opacity:1;stroke-width:0.214287"
       d="M 39,45 V 75 H 67.92857 L 82.928566,45 h 0.964289 V 75 H 82.928566 L 67.92857,45 Z"
       id="path7"
       sodipodi:nodetypes="ccccccccc"
       sodipodi:insensitive="true" /><g
       inkscape:label="Layer 1"
       id="layer1-6"
       transform="matrix(3.7795275,0,0,3.7795275,-126.0009,-528.00085)"
       sodipodi:insensitive="true"
       style="display:none"><circle
         cx="49.212509"
         cy="155.575"
         r="15.743801"
         id="circle2892"
         style="display:inline;opacity:0.2;fill:none;fill-opacity:1;stroke:currentColor;stroke-width:0.261937;stroke-linecap:butt;stroke-linejoin:miter;stroke-miterlimit:4;stroke-dasharray:none;stroke-dashoffset:0;stroke-opacity:1;marker:none;marker-start:none;marker-mid:none;marker-end:none;paint-order:normal;enable-background:new" /><rect
         ry="2.096508"
         rx="2.096508"
         y="141.94769"
         x="35.585205"
         height="27.254602"
         width="27.254602"
         id="rect2896"
         style="display:inline;opacity:0.2;fill:none;fill-opacity:1;stroke:currentColor;stroke-width:0.261937;stroke-linecap:butt;stroke-linejoin:miter;stroke-miterlimit:4;stroke-dasharray:none;stroke-dashoffset:0;stroke-opacity:1;marker:none;marker-start:none;marker-mid:none;marker-end:none;paint-order:normal;enable-background:new" /></g></g></svg>
